<svg version="1" xmlns="http://www.w3.org/2000/svg" width="70.667" height="72" viewBox="0 0 55 57"><path fill="#999" d="M28.7 7.3l-6.8 4 7.1 3.9 7 3.9V27c0 4.4.3 8 .8 7.9.4 0 3.4-1.7 6.7-3.8l6-3.8.3-7.9c.2-6.7 0-8.1-1.5-9-1-.6-4.3-2.4-7.3-4.1l-5.5-3-6.8 4z"/><path fill="#0099ff" d="M13 16.8l-6.5 3.7-.3 8.2-.3 8.1 7.1 4 7 4.1V28.5l5.6-3c8.2-4.4 8.3-4.7 1.3-8.9-3.3-2-6.4-3.6-6.7-3.6-.4 0-3.6 1.7-7.2 3.8z"/><path fill="#303030" d="M22.2 38.2l.3 8.2 6.8 3.9 6.8 3.9 6.9-4.1 7-4.2V38c0-4.4-.3-8-.6-8-.4 0-3.2 1.6-6.4 3.5S36.7 37 36 37c-.6 0-3.9-1.6-7.1-3.5-3.3-1.9-6.2-3.5-6.5-3.5-.3 0-.4 3.7-.2 8.2z"/></svg>
