<svg xmlns="http://www.w3.org/2000/svg" viewBox="0 -30 176 150" height="165" width="200" transform="rotate(180,65,75)"><defs><clipPath id="a"><path d="M0 884.43h1000v-880H0v880z"/></clipPath></defs><g clip-path="url(#a)" transform="matrix(.13 0 0 -.13 0 111.25)"><path fill="#0099ff" d="M398.398 710.8c24.8 10.39 35.192 40 23.98 63.99l-39.18 82.42c-11.21 23.2-38.397 33.59-62.417 23.2-67.97-28.832-126.37-66.398-172.768-111.988C91.212 714.79 52.81 653.18 31.988 585.22 11.21 516.39 0 422.79 0 303.61V57.987C0 31.578 21.602 9.98 48.012 9.98H362.38c26.41 0 48.01 21.598 48.01 48.008v314.41c0 26.41-21.6 48.012-48.01 48.012H211.987c1.602 80.78 20.82 145.59 56.024 194.38C296.802 654.01 340 686 398.398 710.8zM963.2 710.8c24.812 10.39 35.198 40 23.99 63.99l-39.178 81.6c-11.21 23.2-38.403 33.59-62.422 23.2-67.192-28.79-124.81-66.41-172-111.168-56.79-54.41-95.97-116.024-116.79-184.024-20.78-67.187-31.21-160.79-31.21-280.79V57.99c0-26.41 21.6-48.008 48-48.008h314.422c26.398 0 48.008 21.598 48.008 48.008v314.41c0 26.41-21.61 48.012-48.008 48.012h-151.21c1.596 80.78 20.82 145.59 56.007 194.38C861.6 654.01 904.8 686 963.2 710.8z"/></g></svg>
