<svg xmlns="http://www.w3.org/2000/svg" viewBox="0 0 316.25 425" height="50" width="50"><path fill="#fff" d="M157.315 425c9.35 0 16.996-7.65 16.996-17.003V61.486l111.07 124.38c3.4 3.686 7.935 5.67 12.75 5.67 3.965 0 7.935-1.417 11.332-4.25 7.085-6.235 7.652-17 1.417-24.086L170.063 5.67C166.95 1.98 162.13 0 157.314 0c-1.415 0-2.553.284-3.686.566-4.248.85-7.647 3.4-10.2 6.803L4.31 163.2c-6.23 7.084-5.663 17.85 1.422 24.085 7.08 6.23 17.847 5.664 24.083-1.42L140.313 61.766v346.23c0 9.352 7.65 17.003 17.002 17.003z"/></svg>
